<svg width="1037" height="660" viewBox="0 0 1037 660" fill="none" xmlns="http://www.w3.org/2000/svg">
<g clip-path="url(#clip0)">
<path d="M830.481 494.17H45.0292V496.955H830.481V494.17Z" fill="#3F3D56"/>
<path d="M899.868 0H0V437.904H899.868V0Z" fill="#A2CC93"/>
<path opacity="0.1" d="M899.868 33.6849V21.6546H872.198V0H860.168V21.6546H39.7001V0H27.6697V21.6546H0V33.6849H27.6697V404.219H0V416.249H27.6697V437.904H39.7001V416.249H860.168V437.904H872.198V416.249H899.868V404.219H872.198V33.6849H899.868ZM860.168 404.219H39.7001V33.6849H860.168L860.168 404.219Z" fill="black"/>
<path d="M539.626 57.7455H397.739V192.713H539.626V57.7455Z" fill="#D0CDE1"/>
<path d="M523.502 73.869H413.862V157.711H523.502V73.869Z" fill="#31D92D"/>
<path d="M476.426 87.6476H437.988V126.085H476.426V87.6476Z" fill="#F2F2F2"/>
<path d="M452.703 97.2593V143.933H499.376V97.2593H452.703ZM497.352 141.908H454.727V99.2838H497.352V141.908Z" fill="#3F3D56"/>
<path d="M473.391 166.033H413.754V169.172H473.391V166.033Z" fill="#F2F2F2"/>
<path d="M468.682 71.87C472.149 71.87 474.96 69.0595 474.96 65.5925C474.96 62.1255 472.149 59.3149 468.682 59.3149C465.215 59.3149 462.405 62.1255 462.405 65.5925C462.405 69.0595 465.215 71.87 468.682 71.87Z" fill="#3F3D56"/>
<path d="M593.139 252.409H451.252V387.376H593.139V252.409Z" fill="#D0CDE1"/>
<path d="M577.015 268.532H467.375V352.375H577.015V268.532Z" fill="#31D92D"/>
<path d="M526.903 362.266H467.266V365.405H526.903V362.266Z" fill="#F2F2F2"/>
<path d="M526.903 371.682H467.266V374.821H526.903V371.682Z" fill="#F2F2F2"/>
<path d="M486.884 323.031C493.818 323.031 499.439 317.41 499.439 310.476C499.439 303.542 493.818 297.921 486.884 297.921C479.95 297.921 474.329 303.542 474.329 310.476C474.329 317.41 479.95 323.031 486.884 323.031Z" fill="#3F3D56"/>
<path d="M522.195 323.031C529.129 323.031 534.75 317.41 534.75 310.476C534.75 303.542 529.129 297.921 522.195 297.921C515.261 297.921 509.64 303.542 509.64 310.476C509.64 317.41 515.261 323.031 522.195 323.031Z" fill="#F2F2F2"/>
<path d="M557.506 323.031C564.44 323.031 570.061 317.41 570.061 310.476C570.061 303.542 564.44 297.921 557.506 297.921C550.572 297.921 544.951 303.542 544.951 310.476C544.951 317.41 550.572 323.031 557.506 323.031Z" fill="#FF6584"/>
<path d="M522.195 266.533C525.662 266.533 528.473 263.723 528.473 260.256C528.473 256.789 525.662 253.978 522.195 253.978C518.728 253.978 515.917 256.789 515.917 260.256C515.917 263.723 518.728 266.533 522.195 266.533Z" fill="#3F3D56"/>
<path d="M375.989 210.238H234.102V345.206H375.989V210.238Z" fill="#D0CDE1"/>
<path d="M359.865 226.362H250.225V310.204H359.865V226.362Z" fill="#31D92D"/>
<path d="M297.745 304.701C312.446 304.701 324.364 292.783 324.364 278.082C324.364 263.38 312.446 251.463 297.745 251.463C283.044 251.463 271.126 263.38 271.126 278.082C271.126 292.783 283.044 304.701 297.745 304.701Z" fill="#F2F2F2"/>
<path d="M305.591 298.614C298.99 298.614 292.537 296.656 287.049 292.989C281.561 289.322 277.283 284.11 274.757 278.011C272.231 271.913 271.57 265.203 272.858 258.729C274.146 252.255 277.324 246.308 281.992 241.641C286.659 236.973 292.606 233.795 299.08 232.507C305.554 231.219 312.264 231.88 318.362 234.406C324.461 236.932 329.673 241.21 333.34 246.698C337.007 252.186 338.965 258.639 338.965 265.24C338.955 274.088 335.435 282.571 329.179 288.827C322.922 295.084 314.439 298.604 305.591 298.614V298.614ZM305.591 233.079C299.23 233.079 293.012 234.965 287.723 238.499C282.435 242.033 278.313 247.056 275.878 252.932C273.444 258.809 272.807 265.275 274.048 271.514C275.289 277.752 278.352 283.483 282.85 287.98C287.348 292.478 293.078 295.541 299.317 296.782C305.555 298.023 312.021 297.386 317.898 294.952C323.774 292.518 328.797 288.396 332.331 283.107C335.865 277.818 337.751 271.6 337.751 265.24C337.741 256.713 334.35 248.539 328.321 242.509C322.292 236.48 314.117 233.089 305.591 233.079V233.079Z" fill="#3F3D56"/>
<path d="M309.753 327.943H250.117V331.081H309.753V327.943Z" fill="#F2F2F2"/>
<path d="M333.294 318.526H250.117V321.665H333.294V318.526Z" fill="#F2F2F2"/>
<path d="M305.045 224.363C308.512 224.363 311.323 221.552 311.323 218.085C311.323 214.618 308.512 211.808 305.045 211.808C301.578 211.808 298.768 214.618 298.768 218.085C298.768 221.552 301.578 224.363 305.045 224.363Z" fill="#3F3D56"/>
<path d="M220.04 55.3394H78.1533V190.307H220.04V55.3394Z" fill="#D0CDE1"/>
<path d="M203.917 71.463H94.2768V155.305H203.917V71.463Z" fill="#31D92D"/>
<path d="M160.89 137.099H137.303V144.089H160.89V137.099Z" fill="#3F3D56"/>
<path d="M189.405 82.6795H108.788V85.6751H189.405V82.6795Z" fill="#3F3D56"/>
<path d="M189.405 92.1655H108.788V95.1611H189.405V92.1655Z" fill="#3F3D56"/>
<path d="M189.405 101.651H108.788V104.647H189.405V101.651Z" fill="#3F3D56"/>
<path d="M189.405 111.137H108.788V114.133H189.405V111.137Z" fill="#3F3D56"/>
<path d="M189.405 120.623H108.788V123.619H189.405V120.623Z" fill="#3F3D56"/>
<path d="M153.805 163.627H94.1682V166.766H153.805V163.627Z" fill="#F2F2F2"/>
<path d="M177.346 171.474H94.1682V174.613H177.346V171.474Z" fill="#F2F2F2"/>
<path d="M149.097 69.4639C152.564 69.4639 155.374 66.6534 155.374 63.1864C155.374 59.7194 152.564 56.9088 149.097 56.9088C145.63 56.9088 142.819 59.7194 142.819 63.1864C142.819 66.6534 145.63 69.4639 149.097 69.4639Z" fill="#3F3D56"/>
<path d="M654.791 143.51L757.548 151.06L786.608 153.195L784.804 151.39L790.261 230.331L792.99 269.802C793.1 271.397 793.213 272.991 793.321 274.586C793.41 275.912 793.775 277.19 792.204 277.517C789.081 278.168 785.829 278.439 782.665 278.838C776.234 279.65 769.788 280.332 763.328 280.887C737.48 283.106 711.497 283.269 685.624 281.374C679.159 280.9 672.705 280.298 666.262 279.566C663.866 279.294 660.893 279.192 660.018 276.506C659.115 273.736 658.961 270.586 658.553 267.712C656.736 254.906 655.498 242.035 654.838 229.098C653.496 203.315 654.409 177.464 657.569 151.84C657.956 148.702 658.379 145.569 658.838 142.441C659.169 140.169 655.692 139.188 655.357 141.481C651.478 167.961 649.986 194.736 650.899 221.482C651.365 234.864 652.436 248.206 654.113 261.508C654.537 264.868 654.997 268.223 655.494 271.573C655.89 274.239 655.988 277.382 657.574 279.673C659.105 281.883 661.675 282.592 664.201 282.929C667.417 283.358 670.653 283.665 673.881 283.98C700.68 286.593 727.65 286.992 754.515 285.172C761.276 284.714 768.026 284.116 774.765 283.378C778.084 283.014 781.4 282.616 784.711 282.184C786.332 281.973 787.952 281.754 789.571 281.528C791.082 281.421 792.579 281.16 794.037 280.751C797.078 279.654 797.077 276.721 796.888 273.988L796.185 263.821L794.78 243.488L789.115 161.557L788.413 151.39C788.399 150.916 788.205 150.465 787.869 150.129C787.534 149.794 787.082 149.599 786.608 149.586L683.85 142.036L654.791 139.901C652.474 139.73 652.484 143.34 654.791 143.51V143.51Z" fill="#D0CDE1"/>
<path d="M698.827 186.118C699.346 184.74 698.041 187.707 698.696 186.395C698.87 186.046 699.033 185.693 699.218 185.349C699.585 184.665 699.993 184.004 700.437 183.367C700.88 182.733 701.553 182.488 700.244 183.592C700.515 183.314 700.769 183.02 701.004 182.711C701.615 182.041 702.267 181.409 702.955 180.818C703.45 180.394 704.387 180.032 702.711 180.973C703.042 180.787 703.35 180.508 703.666 180.296C704.316 179.859 704.985 179.455 705.675 179.084C706.02 178.898 706.369 178.721 706.722 178.552C707.322 178.265 708.322 178.167 706.432 178.65C707.243 178.443 708.028 178.059 708.839 177.828C709.529 177.633 710.226 177.468 710.93 177.334C711.56 177.216 712.702 177.305 710.553 177.355C710.937 177.346 711.33 177.272 711.715 177.246C712.49 177.193 713.267 177.181 714.044 177.211C714.432 177.226 714.817 177.264 715.204 177.288C716.491 177.364 713.257 176.93 715.204 177.301C715.968 177.446 716.722 177.637 717.463 177.871C717.823 178.025 718.192 178.155 718.569 178.259L717.57 177.829C717.815 177.935 718.058 178.046 718.298 178.163C719.014 178.509 719.709 178.898 720.378 179.326C720.712 179.54 721.031 179.771 721.358 179.994C722.385 180.692 719.981 178.818 721.438 180.095C721.933 180.528 722.407 180.983 722.861 181.46C723.133 181.746 723.398 182.039 723.656 182.339C724.089 182.843 724.42 183.764 723.517 182.113C724.343 183.625 725.377 184.996 726.156 186.554C726.82 187.883 725.55 184.903 726.055 186.302C726.191 186.68 726.337 187.052 726.465 187.432C726.722 188.193 726.944 188.964 727.13 189.746C727.317 190.529 727.408 191.328 727.58 192.112C727.107 189.955 727.453 191.203 727.499 191.789C727.542 192.322 727.567 192.856 727.576 193.391C727.587 194.059 727.571 194.726 727.527 195.393C727.502 195.784 727.414 196.199 727.42 196.589C727.393 194.564 727.566 195.573 727.44 196.253C727.295 197.041 727.108 197.82 726.88 198.588C726.766 198.972 726.641 199.353 726.506 199.731C726.386 200.066 726.259 200.399 726.126 200.729C726.514 199.825 726.545 199.739 726.219 200.471C724.226 204.458 721.742 208.175 719.782 212.175C714.918 222.149 713.283 233.391 715.102 244.337C715.603 246.153 716.793 247.701 718.419 248.651C720.105 249.617 722.104 249.879 723.981 249.379C728.05 248.062 729.649 244.51 729.023 240.5C728.802 239.087 729.139 241.759 728.994 240.337C728.932 239.727 728.87 239.118 728.827 238.506C728.741 237.283 728.706 236.058 728.722 234.832C728.735 233.781 728.786 232.732 728.873 231.684C728.876 231.069 728.94 230.457 729.063 229.855C729.062 229.859 728.831 231.306 728.988 230.473C729.053 230.129 729.099 229.781 729.16 229.437C729.575 227.108 730.175 224.816 730.953 222.582C731.126 222.086 731.316 221.597 731.498 221.104C731.98 219.803 730.997 222.148 731.579 220.889C732.099 219.766 732.637 218.658 733.228 217.571C735.713 213.006 738.524 208.729 740.334 203.819C741.715 199.968 742.261 195.867 741.936 191.789C741.266 183.37 737.696 174.828 731.044 169.378C727.606 166.516 723.541 164.507 719.18 163.513C714.819 162.519 710.285 162.569 705.947 163.659C701.187 164.81 696.78 167.109 693.112 170.355C689.445 173.601 686.627 177.695 684.906 182.28C683.573 185.82 686.385 190.348 689.948 191.159C694.054 192.094 697.399 189.909 698.827 186.118V186.118Z" fill="#D0CDE1"/>
<path d="M724.045 272.116C725.232 272.116 726.392 271.764 727.379 271.105C728.365 270.446 729.134 269.509 729.588 268.412C730.043 267.316 730.161 266.11 729.93 264.946C729.698 263.782 729.127 262.713 728.288 261.874C727.449 261.035 726.38 260.463 725.216 260.232C724.052 260 722.845 260.119 721.749 260.573C720.653 261.027 719.716 261.796 719.056 262.783C718.397 263.77 718.045 264.93 718.045 266.116C718.063 267.702 718.701 269.218 719.822 270.34C720.943 271.461 722.459 272.099 724.045 272.116V272.116Z" fill="#D0CDE1"/>
<path d="M73.4744 481.99H39.7895V515.675H73.4744V481.99Z" fill="#31D92D"/>
<path d="M93.9259 496.426H53.0228V455.523H93.9259V496.426ZM54.8012 494.648H92.1475V457.301H54.8012V494.648Z" fill="#3F3D56"/>
<path d="M823.475 300.156L818.663 314.593C818.663 314.593 788.587 349.481 810.242 354.293C831.897 359.105 834.303 316.999 834.303 316.999L840.318 304.969L823.475 300.156Z" fill="#FFB8B8"/>
<path d="M857.16 125.717C857.16 125.717 849.942 124.514 847.536 153.387C845.13 182.259 843.927 232.787 843.927 232.787L816.257 303.766L851.145 314.593L867.987 233.99L857.16 125.717Z" fill="#575A89"/>
<path d="M841.521 555.199L837.912 578.057H870.394L869.191 555.199H841.521Z" fill="#FFB8B8"/>
<path d="M946.185 580.463L943.778 611.742L965.433 614.148V578.057L946.185 580.463Z" fill="#FFB8B8"/>
<path d="M854.754 256.847L827.084 415.648L834.303 560.011H871.597V428.881L907.688 361.511L936.56 445.723L943.779 586.478L984.682 579.26L975.057 442.114C975.057 442.114 967.839 259.253 960.621 256.847C953.403 254.441 854.754 256.847 854.754 256.847Z" fill="#2F2E41"/>
<path d="M845.13 570.839C845.13 570.839 845.13 558.808 835.506 566.026C825.881 573.245 813.851 586.478 813.851 586.478C813.851 586.478 768.136 611.742 800.618 615.351C833.1 618.96 853.551 598.508 853.551 598.508L857.16 602.117C857.16 602.117 876.409 598.508 876.409 593.696C876.269 589.664 875.868 585.646 875.206 581.666C875.206 581.666 872.675 561.26 869.73 565.448C866.784 569.636 849.942 578.057 845.13 570.839Z" fill="#2F2E41"/>
<path d="M966.636 604.524C966.636 604.524 944.982 593.696 940.169 603.321C935.357 612.945 931.748 632.193 931.748 632.193C931.748 632.193 916.109 662.269 943.779 659.863C971.448 657.457 970.245 641.818 970.245 638.208C970.245 634.599 969.042 626.178 970.245 622.569C971.448 618.96 966.636 604.524 966.636 604.524Z" fill="#2F2E41"/>
<path d="M919.116 78.1971C937.72 78.1971 952.801 63.1158 952.801 44.5122C952.801 25.9085 937.72 10.8273 919.116 10.8273C900.513 10.8273 885.431 25.9085 885.431 44.5122C885.431 63.1158 900.513 78.1971 919.116 78.1971Z" fill="#FFB8B8"/>
<path d="M896.86 60.753L895.657 104.062L938.966 100.453V60.753H896.86Z" fill="#FFB8B8"/>
<path d="M941.372 78.7986C941.372 78.7986 920.921 92.0319 914.906 94.438C908.891 96.8441 895.657 84.8138 895.657 84.8138C895.657 84.8138 892.048 87.2198 892.048 89.6259C892.048 92.0319 889.642 101.656 889.642 101.656L860.769 196.696L863.175 264.065C863.175 264.065 950.997 272.487 960.621 261.659C970.245 250.832 955.809 95.641 955.809 95.641L941.372 78.7986Z" fill="#F9F0F0"/>
<path opacity="0.1" d="M935.357 104.062C935.357 104.062 902.875 116.093 892.048 105.265C892.048 105.265 907.688 108.874 935.357 104.062Z" fill="black"/>
<path d="M1020.77 365.12C1007.54 373.541 964.23 384.369 964.23 384.369C964.23 384.369 959.502 282.532 942.575 266.472C925.745 250.483 898.268 135.221 922.978 115.178C923.088 115.075 923.205 114.979 923.327 114.89L938.966 78.7985C938.966 78.7985 941.372 75.1895 946.184 80.0016C950.077 84.1729 953.694 88.5933 957.012 93.2349L957.698 93.5116L990.697 106.468L977.463 165.417C977.463 165.417 1034.01 356.699 1020.77 365.12Z" fill="#575A89"/>
<path opacity="0.1" d="M957.698 93.5117L948.591 126.92L922.978 115.178C923.088 115.075 923.205 114.979 923.327 114.89L938.966 78.7985C938.966 78.7985 941.372 75.1895 946.185 80.0016C950.077 84.1729 953.694 88.5933 957.012 93.2349L957.698 93.5117Z" fill="black"/>
<path d="M895.056 84.2122L891.447 125.115L891.254 126.98L863.777 388.579C863.777 388.579 839.716 380.158 831.295 370.534C822.874 360.91 850.544 253.84 850.544 253.84L852.95 119.1C852.95 119.1 874.291 104.074 883.013 95.8214C885.058 93.8966 886.406 92.3447 886.634 91.4304C887.837 86.6183 895.056 84.2122 895.056 84.2122Z" fill="#575A89"/>
<path opacity="0.1" d="M895.056 84.2122L891.447 125.115L891.254 126.98L874.003 124.514L883.013 95.8214C885.058 93.8966 886.406 92.3447 886.634 91.4304C887.837 86.6183 895.056 84.2122 895.056 84.2122Z" fill="black"/>
<path d="M959.418 286.923L946.185 298.953C946.185 298.953 952.2 324.217 959.418 325.42C959.418 325.42 964.23 318.202 965.433 312.187C966.636 306.172 977.463 300.156 977.463 300.156L959.418 286.923Z" fill="#FFB8B8"/>
<path d="M975.057 104.062L990.697 106.468C990.697 106.468 1042.43 194.29 1036.41 225.568C1030.4 256.847 982.275 310.984 982.275 310.984L952.2 286.923L996.712 226.772L973.854 154.59L975.057 104.062Z" fill="#575A89"/>
<path d="M885.355 48.2957C885.355 48.2957 885.355 18.5891 892.574 11.8377H901.237C901.237 11.8377 911.344 -3.01562 924.338 2.38557C937.332 7.78676 958.988 17.2389 957.545 32.0921C956.101 46.9454 951.598 56.5425 951.598 56.5425C951.598 56.5425 949.192 56.5425 943.829 48.4679C936.663 37.678 953.214 41.0412 931.557 36.9903C909.9 32.9395 896.906 27.5383 894.018 32.9394C891.131 38.3406 885.355 48.2957 885.355 48.2957Z" fill="#2F2E41"/>
<path d="M901.094 13.8536C901.094 13.8536 902.248 5.17172 906.997 3.30234L901.094 13.8536Z" fill="#2F2E41"/>
<path d="M901.073 15.6395C901.073 15.6395 898.664 7.21935 902.271 3.60864L901.073 15.6395Z" fill="#2F2E41"/>
</g>
<defs>
<clipPath id="clip0">
<rect width="1036.9" height="660" fill="white"/>
</clipPath>
</defs>
</svg>
